<svg width="32" height="32" viewBox="0 0 32 32" fill="none" xmlns="http://www.w3.org/2000/svg">
<circle opacity="0.5" cx="16" cy="16" r="16" fill="#222222"/>
<mask id="path-3-inside-1_178_935" fill="white">
<path fill-rule="evenodd" clip-rule="evenodd" d="M15.0867 23.9396C15.6417 24.3062 16.3575 24.3062 16.9117 23.9396C18.6742 22.7762 22.5117 19.9954 24.165 16.8837C26.3442 12.7787 23.785 8.68457 20.4017 8.68457C18.4734 8.68457 17.3134 9.69207 16.6717 10.5579C16.5946 10.6639 16.4936 10.7502 16.3768 10.8098C16.2599 10.8693 16.1307 10.9003 15.9996 10.9003C15.8685 10.9003 15.7393 10.8693 15.6225 10.8098C15.5057 10.7502 15.4046 10.6639 15.3275 10.5579C14.6859 9.69207 13.5259 8.68457 11.5975 8.68457C8.21421 8.68457 5.65504 12.7787 7.83504 16.8837C9.48671 19.9954 13.3259 22.7762 15.0867 23.9396Z"/>
</mask>
<path d="M15.6379 23.1052C15.1771 22.8008 14.5568 22.9275 14.2524 23.3883C13.9479 23.8491 14.0747 24.4695 14.5355 24.7739L15.6379 23.1052ZM16.9117 23.9396L16.3608 23.105L16.3599 23.1056L16.9117 23.9396ZM24.165 16.8837L25.0481 17.353L25.0483 17.3526L24.165 16.8837ZM16.6717 10.5579L15.8683 9.96247L15.8628 9.96999L16.6717 10.5579ZM15.3275 10.5579L16.1365 9.96997L16.131 9.96249L15.3275 10.5579ZM7.83504 16.8837L8.71832 16.4149L8.71823 16.4147L7.83504 16.8837ZM14.5355 24.7739C14.9963 25.0784 15.6166 24.9516 15.9211 24.4908C16.2255 24.03 16.0987 23.4097 15.6379 23.1052L14.5355 24.7739ZM14.5355 24.7739C15.4245 25.3613 16.5745 25.3617 17.4635 24.7735L16.3599 23.1056C16.1406 23.2507 15.8589 23.2512 15.6379 23.1052L14.5355 24.7739ZM17.4626 24.7742C18.3673 24.177 19.8091 23.1621 21.2429 21.8904C22.6654 20.6287 24.1398 19.0624 25.0481 17.353L23.282 16.4145C22.5369 17.8167 21.2659 19.1967 19.9158 20.3941C18.5768 21.5817 17.2186 22.5388 16.3608 23.105L17.4626 24.7742ZM25.0483 17.3526C27.499 12.7361 24.7073 7.68457 20.4017 7.68457V9.68457C22.8628 9.68457 25.1894 12.8213 23.2818 16.4149L25.0483 17.3526ZM20.4017 7.68457C18.0648 7.68457 16.6362 8.92628 15.8683 9.96249L17.4751 11.1533C17.9905 10.4579 18.882 9.68457 20.4017 9.68457V7.68457ZM15.8628 9.96999C15.8785 9.9484 15.899 9.93083 15.9228 9.91871L16.8307 11.7008C17.0881 11.5697 17.3108 11.3795 17.4806 11.1458L15.8628 9.96999ZM15.9228 9.91871C15.9466 9.9066 15.9729 9.90028 15.9996 9.90028V11.9003C16.2885 11.9003 16.5733 11.8319 16.8307 11.7008L15.9228 9.91871ZM15.9996 9.90028C16.0263 9.90028 16.0526 9.9066 16.0764 9.91871L15.1686 11.7008C15.426 11.8319 15.7107 11.9003 15.9996 11.9003V9.90028ZM16.0764 9.91871C16.1002 9.93083 16.1208 9.9484 16.1365 9.96999L14.5186 11.1458C14.6884 11.3795 14.9112 11.5697 15.1686 11.7008L16.0764 9.91871ZM16.131 9.96249C15.363 8.92628 13.9345 7.68457 11.5975 7.68457V9.68457C13.1173 9.68457 14.0087 10.4579 14.5241 11.1533L16.131 9.96249ZM11.5975 7.68457C7.29196 7.68457 4.5002 12.7362 6.95186 17.3528L8.71823 16.4147C6.80988 12.8212 9.13646 9.68457 11.5975 9.68457V7.68457ZM6.95176 17.3526C7.8593 19.0623 9.33388 20.6288 10.7564 21.8904C12.1902 23.1621 13.6319 24.1769 14.5355 24.7739L15.6379 23.1052C14.7807 22.5389 13.4224 21.5817 12.0835 20.3941C10.7333 19.1966 9.46245 17.8168 8.71832 16.4149L6.95176 17.3526Z" fill="white" mask="url(#path-3-inside-1_178_935)"/>
</svg>
