<svg width="32" height="32" viewBox="0 0 32 32" fill="none" xmlns="http://www.w3.org/2000/svg">
<circle opacity="0.5" cx="16" cy="16" r="16" fill="#222222"/>
<path fill-rule="evenodd" clip-rule="evenodd" d="M15.0867 23.9396C15.6417 24.3062 16.3575 24.3062 16.9117 23.9396C18.6742 22.7762 22.5117 19.9954 24.165 16.8837C26.3442 12.7787 23.785 8.68457 20.4017 8.68457C18.4734 8.68457 17.3134 9.69207 16.6717 10.5579C16.5946 10.6639 16.4936 10.7502 16.3768 10.8098C16.2599 10.8693 16.1307 10.9003 15.9996 10.9003C15.8685 10.9003 15.7393 10.8693 15.6225 10.8098C15.5057 10.7502 15.4046 10.6639 15.3275 10.5579C14.6859 9.69207 13.5259 8.68457 11.5975 8.68457C8.21421 8.68457 5.65504 12.7787 7.83504 16.8837C9.48671 19.9954 13.3259 22.7762 15.0867 23.9396Z" fill="#FC6E51"/>
</svg>
